<svg xmlns="http://www.w3.org/2000/svg" xmlns:xlink="http://www.w3.org/1999/xlink" version="1.1" x="0px" y="0px" viewBox="0 0 64 80" style="enable-background:new 0 0 64 64;" xml:space="preserve"><g><rect x="39" y="45" width="2" height="2"/><rect x="47" y="45" width="2" height="2"/><rect x="43" y="45" width="2" height="2"/><path d="M59.015,4.633c-2.569-2.473-5.948-3.761-9.522-3.623c-5.81,0.222-10.77,4.494-12.121,9.99H6c-2.757,0-5,2.243-5,5v30   c0,2.757,2.243,5,5,5h11.963c-0.168,1.595-0.997,3.041-2.296,4H13c-1.654,0-3,1.346-3,3v2c0,1.654,1.346,3,3,3h30   c1.654,0,3-1.346,3-3v-2c0-1.654-1.346-3-3-3h-2.666c-1.299-0.959-2.128-2.405-2.296-4H50c2.757,0,5-2.243,5-5V34.889   c1.235-1.263,2-2.988,2-4.889v-2.602c0-1.416,0.63-2.772,1.774-3.819C61.459,21.122,63,17.631,63,14   C63,10.434,61.584,7.107,59.015,4.633z M49,36.92V41H7V25h35.387C42.784,25.705,43,26.477,43,27.271V30   C43,33.519,45.613,36.432,49,36.92z M7,23v-6h30.371c0.535,2.245,1.661,4.315,3.286,6H7z M44,58v2c0,0.552-0.449,1-1,1H13   c-0.551,0-1-0.448-1-1v-2c0-0.552,0.449-1,1-1h30C43.551,57,44,57.448,44,58z M37.529,55H18.471c0.858-1.155,1.378-2.536,1.492-4   h16.075C36.152,52.464,36.672,53.845,37.529,55z M50,49H6c-1.654,0-3-1.346-3-3V16c0-1.654,1.346-3,3-3h31.055   c-0.018,0.232-0.046,0.461-0.051,0.695c-0.01,0.438,0.007,0.873,0.041,1.305H7c-1.103,0-2,0.897-2,2v24c0,1.103,0.897,2,2,2h42   c1.103,0,2-0.897,2-2v-4.08c0.706-0.102,1.378-0.308,2-0.605V46C53,47.654,51.654,49,50,49z M50,35c-2.757,0-5-2.243-5-5v-1h10v1   C55,32.757,52.757,35,50,35z M47,13h-1c-0.551,0-1-0.448-1-1s0.449-1,1-1s1,0.448,1,1V13z M51,27h-2V15h2V27z M57.424,22.104   c-1.458,1.333-2.295,3.06-2.402,4.896H53V15h1c1.654,0,3-1.346,3-3s-1.346-3-3-3s-3,1.346-3,3v1h-2v-1c0-1.654-1.346-3-3-3   s-3,1.346-3,3s1.346,3,3,3h1v12h-2.015c-0.078-1.799-0.919-3.552-2.351-4.844c-2.381-2.148-3.704-5.215-3.631-8.415   c0.131-5.701,4.87-10.516,10.565-10.733C49.714,3.003,49.858,3,50.003,3c2.862,0,5.556,1.082,7.625,3.074   C59.802,8.168,61,10.982,61,14C61,17.071,59.697,20.024,57.424,22.104z M53,13v-1c0-0.552,0.449-1,1-1s1,0.448,1,1s-0.449,1-1,1H53   z"/><rect x="13" y="19" width="2" height="2"/><rect x="9" y="19" width="2" height="2"/><rect x="17" y="19" width="2" height="2"/><path d="M9,39h16V27H9V39z M11,29h12v8H11V29z"/><rect x="27" y="27" width="2" height="2"/><rect x="31" y="27" width="10" height="2"/><rect x="27" y="31" width="14" height="2"/><rect x="27" y="35" width="14" height="2"/></g><text x="0" y="79" fill="#000000" font-size="5px" font-weight="bold" font-family="'Helvetica Neue', Helvetica, Arial-Unicode, Arial, Sans-serif">Created by Eucalyp</text><text x="0" y="84" fill="#000000" font-size="5px" font-weight="bold" font-family="'Helvetica Neue', Helvetica, Arial-Unicode, Arial, Sans-serif">from the Noun Project</text></svg>